<svg xmlns="http://www.w3.org/2000/svg" viewBox="0 0 223.66 223.15"><defs><style>.a{fill:#fff;}</style></defs><path class="a" d="M109,0H0V32.94H74.81V38H0v70.73H109V76.85H36.26V70.69L109,70.47Z"/><path class="a" d="M115.15,0V71h71V76.6h-71v32.17H223.66V0Zm71.91,37.57-39.91-.12c0-1.55,0-3.1,0-4.64l39.79,0C187,34.43,187,36,187.06,37.57Z"/><polygon class="a" points="109.02 114.89 109.02 164.43 36.51 164.43 36.51 170.81 109.02 170.81 109.02 223.15 0 223.15 0 114.89 109.02 114.89"/><polygon class="a" points="116.17 134.81 136.09 114.89 203.75 114.89 223.66 134.81 223.66 223.15 188.94 223.15 187.06 148.34 150.89 148.34 150.89 223.15 116.17 223.15 116.17 134.81"/></svg>