<svg xmlns="http://www.w3.org/2000/svg" viewBox="0 0 162.89 127.45"><defs><style>.a{fill:#e1002a;}.b{fill:#ee7501;}</style></defs><path class="a" d="M24,93.54c-4.53-2.12-8.25-3.83-8.25-7.29,0-2.65,2.12-4.57,6.3-4.57a21.53,21.53,0,0,1,4.1.42,13.34,13.34,0,0,0,2,.21c3.65,0,5.72-2.17,7.09-6.31l.56-1.69a38.39,38.39,0,0,0-14.33-2.85C9.06,71.46,2.52,79.4,2.52,87.63a14,14,0,0,0,3.34,9.54c2.63,3,6.37,5,9.87,6.76,5.1,2.5,9.7,4.35,9.7,8.06,0,3.29-3.39,5.17-7.94,5.17-6.23,0-11.68-3.57-12.37-4L0,122.75c.91.52,7.5,4.7,18.34,4.7,11.56,0,20.31-6.63,20.31-16.82S30.54,96.72,24,93.54Z"/><path class="a" d="M69.16,98.28l21-25.7H75.19L58.47,94.75h-.25V72.58H45.91V127h.73c5.32,0,11.66-2.46,11.66-11.35v-12.5h.25l17,23.17H91.26Z"/><path class="a" d="M90.82,14.26C86.49,15.08,80.06,19,80.08,26c0,6.32,5.19,10.15,5.2,18.42a14.63,14.63,0,0,1-7.12,12.75c1.5-.13,3.15-.22,5-.22a42.29,42.29,0,0,1,6.22.37l19.45-23.86A81.06,81.06,0,0,0,90.82,14.26Z"/><path class="a" d="M107.16,78.69c2.45-3.81,2.75-9.88,3-16.07.23-5.77,1.44-10.11,9.15-10.13,1.71,0,3.34.22,6.29.22a45.55,45.55,0,0,0,23.28-6.5,80.75,80.75,0,0,0-40.06-12.78c-1.11,3.12-9.72,27.06-10.37,29a30.91,30.91,0,0,1,3.49,5.1A56.57,56.57,0,0,1,107.16,78.69Z"/><path class="b" d="M66.09,59.14c-1,0-1.47-.65-1.61-1.78S59.5,11.74,58.77,5c-.1-1-.35-2.79-.35-3.43A1.44,1.44,0,0,1,59.89,0c2.3,0,14.86,2.93,28.18,12.27-3.84,1.08-10.78,5.08-10.75,13.35,0,7.31,5.27,11.34,5.29,18.68C82.65,56.24,68.93,59.13,66.09,59.14Z"/><path class="b" d="M108.27,81.87a8.73,8.73,0,0,0,.61,1.34,1.3,1.3,0,0,0,1.19.75,2.81,2.81,0,0,0,1.11-.29c1-.47,41.63-19.37,47.75-22.2.89-.43,2.57-1.18,3.13-1.5a1.49,1.49,0,0,0,.83-1.29,1.54,1.54,0,0,0-.23-.8c-.77-1.24-4.69-5.41-11.26-10-5.22,2.87-13.36,7.31-25.47,7.36-3,0-3.64-.2-5.67-.19-5.91,0-7.39,2.55-7.6,7.73,0,1-.06,2.3-.11,3.74C112.36,71.2,111.81,77.59,108.27,81.87Z"/></svg>